<svg width="40" height="40" xmlns="http://www.w3.org/2000/svg"><g fill="none" fill-rule="evenodd"><path d="M12.007 15.888L1.055 36.403a1.883 1.883 0 0 0 .328 2.214c.587.586 1.485.72 2.215.328l20.579-10.973" stroke="#1A82E2"/><ellipse stroke="#1A82E2" transform="rotate(45.004 18.93 21.08)" cx="18.93" cy="21.08" rx="8.961" ry="4.135"/><path d="M27.412 20.362a8.277 8.277 0 0 1 11.696 0" stroke="#FF4081"/><path d="M19.615 12.565a8.27 8.27 0 0 0 0-11.697" stroke="#18C96E"/><path d="M30.125 13.75l5.848-1.947" stroke="#4CB04F"/><path d="M26.227 9.853l1.95-5.85" stroke="#00BCD4"/><ellipse stroke="#7B1FA2" cx="25.943" cy="13.752" rx=".835" ry=".835"/><circle stroke="#FF5722" cx="13.557" cy="8.877" r=".833"/><ellipse stroke="#DEA7E8" cx="33.18" cy="6.827" rx=".833" ry=".833"/><ellipse stroke="#FDD835" cx="32.075" cy="23.5" rx=".833" ry=".833"/><path d="M0 0h40v40H0z"/></g></svg>